<mxfile host="app.diagrams.net" modified="2020-10-08T19:37:44.915Z" agent="5.0 (Windows NT 10.0; Win64; x64) AppleWebKit/537.36 (KHTML, like Gecko) Chrome/85.0.4183.121 Safari/537.36" etag="SQrML6gpQU_jCJNFSBBv" version="13.7.9" type="github">
  <diagram name="Page-1" id="e7e014a7-5840-1c2e-5031-d8a46d1fe8dd">
    <mxGraphModel dx="1422" dy="762" grid="1" gridSize="10" guides="1" tooltips="1" connect="1" arrows="1" fold="1" page="1" pageScale="1" pageWidth="1169" pageHeight="826" background="#ffffff" math="0" shadow="0">
      <root>
        <mxCell id="0" />
        <mxCell id="1" parent="0" />
        <mxCell id="2" value="Connexion" style="swimlane;whiteSpace=wrap" parent="1" vertex="1">
          <mxGeometry x="30" y="70" width="330" height="290" as="geometry" />
        </mxCell>
        <mxCell id="5" value="" style="ellipse;shape=startState;fillColor=#000000;strokeColor=#ff0000;" parent="2" vertex="1">
          <mxGeometry x="150" y="40" width="30" height="30" as="geometry" />
        </mxCell>
        <mxCell id="6" value="" style="edgeStyle=elbowEdgeStyle;elbow=horizontal;verticalAlign=bottom;endArrow=open;endSize=8;strokeColor=#FF0000;endFill=1;rounded=0;exitX=0;exitY=1;exitDx=0;exitDy=0;entryX=0.5;entryY=0;entryDx=0;entryDy=0;" parent="2" source="5" target="7" edge="1">
          <mxGeometry x="100" y="40" as="geometry">
            <mxPoint x="170" y="100" as="targetPoint" />
            <mxPoint x="100" y="80" as="sourcePoint" />
            <Array as="points">
              <mxPoint x="165" y="90" />
            </Array>
          </mxGeometry>
        </mxCell>
        <mxCell id="7" value="Connexion" style="" parent="2" vertex="1">
          <mxGeometry x="110" y="120" width="110" height="50" as="geometry" />
        </mxCell>
        <mxCell id="9" value="" style="endArrow=open;strokeColor=#FF0000;endFill=1;rounded=0;entryX=0.5;entryY=0;entryDx=0;entryDy=0;" parent="2" source="7" target="SvhvLugHfwUA9m5zu3sA-56" edge="1">
          <mxGeometry relative="1" as="geometry">
            <mxPoint x="165" y="220" as="targetPoint" />
          </mxGeometry>
        </mxCell>
        <mxCell id="11" value="" style="endArrow=open;strokeColor=#FF0000;endFill=1;rounded=0;entryX=0;entryY=0.5;entryDx=0;entryDy=0;exitX=0;exitY=0.5;exitDx=0;exitDy=0;" parent="2" source="SvhvLugHfwUA9m5zu3sA-56" target="7" edge="1">
          <mxGeometry relative="1" as="geometry">
            <mxPoint x="110" y="245" as="sourcePoint" />
            <mxPoint x="10" y="130" as="targetPoint" />
            <Array as="points">
              <mxPoint x="70" y="240" />
              <mxPoint x="70" y="145" />
            </Array>
          </mxGeometry>
        </mxCell>
        <mxCell id="SvhvLugHfwUA9m5zu3sA-58" value="Non" style="edgeLabel;html=1;align=center;verticalAlign=middle;resizable=0;points=[];" parent="11" vertex="1" connectable="0">
          <mxGeometry x="-0.0737" y="-1" relative="1" as="geometry">
            <mxPoint as="offset" />
          </mxGeometry>
        </mxCell>
        <mxCell id="SvhvLugHfwUA9m5zu3sA-56" value="Valide ?" style="rhombus;fillColor=#ffffc0;strokeColor=#ff0000;" parent="2" vertex="1">
          <mxGeometry x="125" y="220" width="80" height="40" as="geometry" />
        </mxCell>
        <mxCell id="3" value="Catalogue" style="swimlane;whiteSpace=wrap" parent="1" vertex="1">
          <mxGeometry x="400" y="280" width="320" height="570" as="geometry" />
        </mxCell>
        <mxCell id="13" value="" style="ellipse;shape=startState;fillColor=#000000;strokeColor=#ff0000;" parent="3" vertex="1">
          <mxGeometry x="140" y="50" width="30" height="30" as="geometry" />
        </mxCell>
        <mxCell id="14" value="" style="edgeStyle=elbowEdgeStyle;elbow=horizontal;verticalAlign=bottom;endArrow=open;endSize=8;strokeColor=#FF0000;endFill=1;rounded=0" parent="3" source="13" target="15" edge="1">
          <mxGeometry x="46.5" y="20" as="geometry">
            <mxPoint x="61.5" y="90" as="targetPoint" />
          </mxGeometry>
        </mxCell>
        <mxCell id="15" value="Visionnage&#xa;du catalogue" style="" parent="3" vertex="1">
          <mxGeometry x="100" y="110" width="110" height="50" as="geometry" />
        </mxCell>
        <mxCell id="17" value="" style="endArrow=open;strokeColor=#FF0000;endFill=1;rounded=0" parent="3" source="15" edge="1">
          <mxGeometry relative="1" as="geometry">
            <mxPoint x="155" y="200" as="targetPoint" />
          </mxGeometry>
        </mxCell>
        <mxCell id="SvhvLugHfwUA9m5zu3sA-60" value="" style="endArrow=open;strokeColor=#FF0000;endFill=1;rounded=0;exitX=1;exitY=0.5;exitDx=0;exitDy=0;entryX=1;entryY=0.5;entryDx=0;entryDy=0;" parent="3" source="SvhvLugHfwUA9m5zu3sA-61" target="15" edge="1">
          <mxGeometry relative="1" as="geometry">
            <mxPoint x="210" y="212.5" as="sourcePoint" />
            <mxPoint x="270" y="213" as="targetPoint" />
            <Array as="points">
              <mxPoint x="240" y="220" />
              <mxPoint x="240" y="135" />
            </Array>
          </mxGeometry>
        </mxCell>
        <mxCell id="SvhvLugHfwUA9m5zu3sA-62" value="Non" style="edgeLabel;html=1;align=center;verticalAlign=middle;resizable=0;points=[];" parent="SvhvLugHfwUA9m5zu3sA-60" vertex="1" connectable="0">
          <mxGeometry x="0.2625" y="-3" relative="1" as="geometry">
            <mxPoint x="-3" y="16" as="offset" />
          </mxGeometry>
        </mxCell>
        <mxCell id="SvhvLugHfwUA9m5zu3sA-61" value="Profil intéressant" style="rhombus;fillColor=#ffffc0;strokeColor=#ff0000;" parent="3" vertex="1">
          <mxGeometry x="115" y="200" width="80" height="40" as="geometry" />
        </mxCell>
        <mxCell id="hSNW1GyjgXjB87OLe-Su-52" value="Remboursement&#xa;+ dédommagement" style="" vertex="1" parent="3">
          <mxGeometry x="20" y="490" width="110" height="40" as="geometry" />
        </mxCell>
        <mxCell id="hSNW1GyjgXjB87OLe-Su-54" value="" style="endArrow=open;strokeColor=#FF0000;endFill=1;rounded=0;exitX=0.25;exitY=0;exitDx=0;exitDy=0;entryX=0;entryY=0.5;entryDx=0;entryDy=0;" edge="1" parent="3" source="hSNW1GyjgXjB87OLe-Su-52" target="15">
          <mxGeometry relative="1" as="geometry">
            <mxPoint x="48" y="140" as="targetPoint" />
            <mxPoint x="80" y="370" as="sourcePoint" />
            <Array as="points">
              <mxPoint x="48" y="135" />
            </Array>
          </mxGeometry>
        </mxCell>
        <mxCell id="4" value="Informations &amp; Paiement" style="swimlane;whiteSpace=wrap" parent="1" vertex="1">
          <mxGeometry x="760" y="520" width="280" height="500" as="geometry" />
        </mxCell>
        <mxCell id="33" value="process&#xa;command" style="" parent="4" vertex="1">
          <mxGeometry x="85" y="360" width="110" height="50" as="geometry" />
        </mxCell>
        <mxCell id="38" value="" style="ellipse;shape=endState;fillColor=#000000;strokeColor=#ff0000" parent="4" vertex="1">
          <mxGeometry x="125" y="450" width="30" height="30" as="geometry" />
        </mxCell>
        <mxCell id="39" value="" style="endArrow=open;strokeColor=#FF0000;endFill=1;rounded=0" parent="4" source="33" target="38" edge="1">
          <mxGeometry relative="1" as="geometry" />
        </mxCell>
        <mxCell id="hSNW1GyjgXjB87OLe-Su-39" value="Partage&#xa;d&#39;informations" style="" vertex="1" parent="4">
          <mxGeometry x="90" y="60" width="100" height="40" as="geometry" />
        </mxCell>
        <mxCell id="hSNW1GyjgXjB87OLe-Su-40" value="" style="endArrow=open;strokeColor=#FF0000;endFill=1;rounded=0;entryX=0.5;entryY=0;entryDx=0;entryDy=0;" edge="1" parent="4" target="hSNW1GyjgXjB87OLe-Su-41">
          <mxGeometry relative="1" as="geometry">
            <mxPoint x="139.5" y="150" as="targetPoint" />
            <mxPoint x="139.5" y="100" as="sourcePoint" />
          </mxGeometry>
        </mxCell>
        <mxCell id="hSNW1GyjgXjB87OLe-Su-41" value="Une partie du&#xa;paiement" style="" vertex="1" parent="4">
          <mxGeometry x="90" y="150" width="100" height="40" as="geometry" />
        </mxCell>
        <mxCell id="hSNW1GyjgXjB87OLe-Su-42" value="" style="endArrow=open;strokeColor=#FF0000;endFill=1;rounded=0;entryX=0.5;entryY=0;entryDx=0;entryDy=0;" edge="1" parent="4">
          <mxGeometry relative="1" as="geometry">
            <mxPoint x="140" y="240" as="targetPoint" />
            <mxPoint x="139.5" y="190" as="sourcePoint" />
          </mxGeometry>
        </mxCell>
        <mxCell id="hSNW1GyjgXjB87OLe-Su-44" value="" style="endArrow=open;strokeColor=#FF0000;endFill=1;rounded=0;exitX=0.5;exitY=1;exitDx=0;exitDy=0;" edge="1" parent="4" source="hSNW1GyjgXjB87OLe-Su-46">
          <mxGeometry relative="1" as="geometry">
            <mxPoint x="140" y="360" as="targetPoint" />
            <mxPoint x="139.5" y="306" as="sourcePoint" />
          </mxGeometry>
        </mxCell>
        <mxCell id="hSNW1GyjgXjB87OLe-Su-45" value="Oui" style="edgeLabel;html=1;align=center;verticalAlign=middle;resizable=0;points=[];" vertex="1" connectable="0" parent="hSNW1GyjgXjB87OLe-Su-44">
          <mxGeometry x="-0.2799" y="1" relative="1" as="geometry">
            <mxPoint x="-1" y="8" as="offset" />
          </mxGeometry>
        </mxCell>
        <mxCell id="hSNW1GyjgXjB87OLe-Su-46" value="Confirmation&#xa;meurtre" style="rhombus;fillColor=#ffffc0;strokeColor=#ff0000;" vertex="1" parent="4">
          <mxGeometry x="95" y="240" width="90" height="60" as="geometry" />
        </mxCell>
        <mxCell id="SvhvLugHfwUA9m5zu3sA-50" value="" style="endArrow=open;strokeColor=#FF0000;endFill=1;rounded=0;exitX=0.5;exitY=1;exitDx=0;exitDy=0;entryX=0;entryY=0.5;entryDx=0;entryDy=0;" parent="1" source="SvhvLugHfwUA9m5zu3sA-56" target="13" edge="1">
          <mxGeometry relative="1" as="geometry">
            <mxPoint x="195" y="340" as="sourcePoint" />
            <mxPoint x="420" y="330" as="targetPoint" />
            <Array as="points">
              <mxPoint x="195" y="345" />
            </Array>
          </mxGeometry>
        </mxCell>
        <mxCell id="SvhvLugHfwUA9m5zu3sA-59" value="Oui" style="edgeLabel;html=1;align=center;verticalAlign=middle;resizable=0;points=[];" parent="SvhvLugHfwUA9m5zu3sA-50" vertex="1" connectable="0">
          <mxGeometry x="-0.1037" y="-2" relative="1" as="geometry">
            <mxPoint as="offset" />
          </mxGeometry>
        </mxCell>
        <mxCell id="19" value="" style="endArrow=open;strokeColor=#FF0000;endFill=1;rounded=0;exitX=0;exitY=1;exitDx=0;exitDy=0;entryX=0;entryY=0.5;entryDx=0;entryDy=0;" parent="1" source="SvhvLugHfwUA9m5zu3sA-61" edge="1" target="hSNW1GyjgXjB87OLe-Su-39">
          <mxGeometry relative="1" as="geometry">
            <mxPoint x="523.5" y="550" as="sourcePoint" />
            <mxPoint x="820" y="600" as="targetPoint" />
            <Array as="points">
              <mxPoint x="535" y="600" />
            </Array>
          </mxGeometry>
        </mxCell>
        <mxCell id="SvhvLugHfwUA9m5zu3sA-63" value="Oui" style="edgeLabel;html=1;align=center;verticalAlign=middle;resizable=0;points=[];" parent="19" vertex="1" connectable="0">
          <mxGeometry x="-0.3176" y="-3" relative="1" as="geometry">
            <mxPoint x="57" y="-3" as="offset" />
          </mxGeometry>
        </mxCell>
        <mxCell id="hSNW1GyjgXjB87OLe-Su-48" value="" style="endArrow=open;strokeColor=#FF0000;endFill=1;rounded=0;exitX=0;exitY=0.5;exitDx=0;exitDy=0;entryX=1;entryY=0.5;entryDx=0;entryDy=0;" edge="1" parent="1" source="hSNW1GyjgXjB87OLe-Su-46" target="hSNW1GyjgXjB87OLe-Su-52">
          <mxGeometry relative="1" as="geometry">
            <mxPoint x="550" y="790" as="targetPoint" />
            <mxPoint x="845" y="790" as="sourcePoint" />
          </mxGeometry>
        </mxCell>
        <mxCell id="hSNW1GyjgXjB87OLe-Su-51" value="Non" style="edgeLabel;html=1;align=center;verticalAlign=middle;resizable=0;points=[];" vertex="1" connectable="0" parent="hSNW1GyjgXjB87OLe-Su-48">
          <mxGeometry x="-0.648" y="-2" relative="1" as="geometry">
            <mxPoint x="21" y="2" as="offset" />
          </mxGeometry>
        </mxCell>
      </root>
    </mxGraphModel>
  </diagram>
</mxfile>
